#!OML:ASF H:\MichaelJackson\Top Level 1\Subject 1\Session 1\male.ASF
:FULLY-SPECIFIED
:DEGREES
35
root 4.96594 16.957 -29.0754 9.11947 1.62148 -2.44013
lowerback -7.49466 0.582333 -0.671323
upperback -1.26623 0.775689 1.70354
thorax 2.8602 0.374396 2.21303
lowerneck -8.81171 -2.34338 -2.32952
upperneck 0.84751 -2.94313 1.99207
head 1.84313 -1.42633 0.904122
rclavicle -8.09426e-015 -1.70955e-014
rhumerus -35.8819 2.12206 -90.4225
rradius 31.9671
rwrist 18.9765
rhand -27.5164 -18.2813
rfingers 7.12502
rthumb -0.918859 -48.2591
lclavicle -8.09426e-015 -1.70955e-014
lhumerus -38.3246 -12.1378 97.3174
lradius 37.7728
lwrist 5.46184
lhand -11.0487 3.17948
lfingers 7.12502
lthumb 14.9736 32.6182
rfemur -17.5296 7.67106 21.486
rtibia 30.6237
rfoot -19.1138 -12.153
rtoes 32.4813
lfemur -21.0383 2.06787 -19.4862
ltibia 32.8148
lfoot -18.2466 11.9926
ltoes 10.1087
36
root 4.95974 16.9575 -29.0743 9.11974 1.65835 -2.43577
lowerback -7.48472 0.568565 -0.697027
upperback -1.26011 0.758744 1.72359
thorax 2.8611 0.365607 2.24654
lowerneck -8.8338 -2.35032 -2.34194
upperneck 0.879588 -2.95063 1.98258
head 1.85786 -1.43029 0.902684
rclavicle -8.1129e-015 -1.94809e-014
rhumerus -35.8848 2.13342 -90.4101
rradius 31.9772
rwrist 18.9555
rhand -27.4873 -18.3059
rfingers 7.12502
rthumb -0.890712 -48.2837
lclavicle -8.1129e-015 -1.94809e-014
lhumerus -38.3262 -12.1118 97.332
lradius 37.7327
lwrist 5.43293
lhand -11.0179 3.11993
lfingers 7.12502
lthumb 15.0033 32.5564
rfemur -17.5224 7.61026 21.5115
rtibia 30.6243
rfoot -19.0476 -12.2295
rtoes 31.901
lfemur -21.0395 2.03908 -19.4604
ltibia 32.8207
lfoot -18.2881 11.9777
ltoes 10.1662
37
root 4.95405 16.958 -29.0738 9.13172 1.67832 -2.43205
lowerback -7.4772 0.562227 -0.715096
upperback -1.2587 0.751185 1.74178
thorax 2.85822 0.361633 2.27473
lowerneck -8.85142 -2.35641 -2.35928
upperneck 0.903745 -2.95667 1.97923
head 1.86941 -1.43341 0.904165
rclavicle 2.72087e-015 7.95139e-015
rhumerus -35.8915 2.14688 -90.3973
rradius 31.9928
rwrist 18.928
rhand -27.4488 -18.3378
rfingers 7.12502
rthumb -0.853555 -48.3158
lclavicle 2.72087e-015 7.95139e-015
lhumerus -38.3285 -12.0927 97.3525
lradius 37.6991
lwrist 5.40895
lhand -10.9851 3.05248
lfingers 7.12502
lthumb 15.0349 32.4866
rfemur -17.5353 7.5263 21.5312
rtibia 30.627
rfoot -18.9589 -12.2844
rtoes 31.2163
lfemur -21.056 2.02096 -19.4398
ltibia 32.8247
lfoot -18.3176 11.9709
ltoes 10.2132
38
root 4.94869 16.9585 -29.0737 9.15031 1.68827 -2.42654
lowerback -7.4711 0.560628 -0.7294
upperback -1.26026 0.74973 1.75788
thorax 2.85287 0.360785 2.2992
lowerneck -8.86828 -2.36194 -2.37837
upperneck 0.92738 -2.96184 1.97705
head 1.88069 -1.43608 0.906368
rclavicle 1.06226e-014 1.59028e-015
rhumerus -35.9062 2.16378 -90.385
rradius 32.0179
rwrist 18.8955
rhand -27.4028 -18.3733
rfingers 7.12502
rthumb -0.809125 -48.3515
lclavicle 1.06226e-014 1.59028e-015
lhumerus -38.331 -12.0777 97.3773
lradius 37.6722
lwrist 5.38712
lhand -10.9548 3.00689
lfingers 7.12502
lthumb 15.0641 32.4388
rfemur -17.561 7.42667 21.5446
rtibia 30.6323
rfoot -18.8585 -12.3233
rtoes 30.4665
lfemur -21.0788 1.99429 -19.4237
ltibia 32.8262
lfoot -18.3411 11.9814
ltoes 10.2658
39
root 4.94342 16.959 -29.074 9.17283 1.69636 -2.41757
lowerback -7.46602 0.559321 -0.74217
upperback -1.26377 0.748638 1.77147
thorax 2.8461 0.360168 2.32026
lowerneck -8.88128 -2.36497 -2.40148
upperneck 0.948543 -2.96342 1.97865
head 1.89056 -1.43691 0.910671
rclavicle -3.76448e-015 4.37326e-015
rhumerus -35.9273 2.18511 -90.3759
rradius 32.0491
rwrist 18.8601
rhand -27.3554 -18.3983
rfingers 7.12502
rthumb -0.763377 -48.3767
lclavicle -3.76448e-015 4.37326e-015
lhumerus -38.3344 -12.0628 97.4028
lradius 37.6528
lwrist 5.36637
lhand -10.9333 3.0044
lfingers 7.12502
lthumb 15.0848 32.4348
rfemur -17.5947 7.32213 21.5525
rtibia 30.6396
rfoot -18.7581 -12.3548
rtoes 29.6994
lfemur -21.108 1.98849 -19.4146
ltibia 32.8258
lfoot -18.3596 11.9793
ltoes 10.291
40
root 4.93785 16.9593 -29.074 9.19032 1.71467 -2.40224
lowerback -7.46037 0.554317 -0.763766
upperback -1.26544 0.743318 1.78471
thorax 2.84101 0.357339 2.34553
lowerneck -8.88993 -2.36622 -2.42424
upperneck 0.968038 -2.96266 1.97751
head 1.89897 -1.43666 0.914186
rclavicle 5.97596e-015 1.39149e-014
rhumerus -35.9533 2.20846 -90.3676
rradius 32.0825
rwrist 18.8253
rhand -27.3168 -18.4142
rfingers 7.12502
rthumb -0.726048 -48.3927
lclavicle 5.97596e-015 1.39149e-014
lhumerus -38.3381 -12.0501 97.4317
lradius 37.6403
lwrist 5.34689
lhand -10.9263 3.033
lfingers 7.12502
lthumb 15.0915 32.4629
rfemur -17.6213 7.2294 21.5564
rtibia 30.6488
rfoot -18.6758 -12.3956
rtoes 28.9849
lfemur -21.1313 1.99057 -19.4113
ltibia 32.824
lfoot -18.379 11.9616
ltoes 10.3037
41
root 4.93175 16.9594 -29.0737 9.1972 1.7512 -2.38713
lowerback -7.45342 0.544023 -0.792896
upperback -1.26209 0.731388 1.8015
thorax 2.84055 0.351058 2.37812
lowerneck -8.89933 -2.36795 -2.44377
upperneck 0.989307 -2.96261 1.96927
head 1.9079 -1.43695 0.914831
rclavicle -4.98204e-015 -1.49089e-014
rhumerus -35.9773 2.23029 -90.3572
rradius 32.1127
rwrist 18.7925
rhand -27.2797 -18.419
rfingers 7.12502
rthumb -0.690275 -48.3977
lclavicle -4.98204e-015 -1.49089e-014
lhumerus -38.3385 -12.0421 97.4663
lradius 37.6328
lwrist 5.3293
lhand -10.9245 3.05455
lfingers 7.12502
lthumb 15.0932 32.4843
rfemur -17.6317 7.16081 21.5666
rtibia 30.6581
rfoot -18.6194 -12.4595
rtoes 28.3584
lfemur -21.1432 2.00198 -19.4038
ltibia 32.8228
lfoot -18.4098 11.9169
ltoes 10.3218
42
root 4.92528 16.9593 -29.0731 9.19267 1.80064 -2.37029
lowerback -7.44014 0.530616 -0.830204
upperback -1.25586 0.715855 1.82091
thorax 2.83961 0.342882 2.41763
lowerneck -8.90646 -2.36925 -2.45884
upperneck 1.01018 -2.96216 1.95213
head 1.91598 -1.43727 0.911897
rclavicle -1.83876e-015 1.78906e-015
rhumerus -35.9965 2.24794 -90.3438
rradius 32.1293
rwrist 18.7634
rhand -27.2562 -18.4154
rfingers 7.12502
rthumb -0.667517 -48.3941
lclavicle -1.83876e-015 1.78906e-015
lhumerus -38.3383 -12.0383 97.5076
lradius 37.6299
lwrist 5.3134
lhand -10.9286 3.07628
lfingers 7.12502
lthumb 15.0892 32.5063
rfemur -17.6252 7.10875 21.5798
rtibia 30.6669
rfoot -18.5823 -12.5384
rtoes 27.8039
lfemur -21.1432 2.021 -19.3958
ltibia 32.8227
lfoot -18.446 11.8559
ltoes 10.3302
43
root 4.91861 16.9591 -29.0723 9.18136 1.85687 -2.35526
lowerback -7.42589 0.515408 -0.867126
upperback -1.24613 0.697797 1.84193
thorax 2.84186 0.333385 2.45838
lowerneck -8.91665 -2.3706 -2.47084
upperneck 1.0334 -2.96182 1.92902
head 1.9252 -1.43778 0.906487
rclavicle 1.21756e-015 6.55989e-015
rhumerus -36.0106 2.26047 -90.3291
rradius 32.1398
rwrist 18.74
rhand -27.2359 -18.403
rfingers 7.12502
rthumb -0.647963 -48.3817
lclavicle 1.21756e-015 6.55989e-015
lhumerus -38.3354 -12.0336 97.5505
lradius 37.6328
lwrist 5.29959
lhand -10.9275 3.07081
lfingers 7.12502
lthumb 15.0903 32.5008
rfemur -17.6079 7.06871 21.5984
rtibia 30.6743
rfoot -18.5629 -12.6209
rtoes 27.3423
lfemur -21.1366 2.04272 -19.3837
ltibia 32.8247
lfoot -18.4932 11.7845
ltoes 10.3519
44
root 4.91197 16.9588 -29.0716 9.16518 1.9107 -2.34307
lowerback -7.41128 0.503244 -0.902594
upperback -1.23357 0.683577 1.86488
thorax 2.8467 0.325754 2.50072
lowerneck -8.92567 -2.37301 -2.48161
upperneck 1.05404 -2.96285 1.90145
head 1.93326 -1.4391 0.899389
rclavicle 1.72073e-014 1.63003e-014
rhumerus -36.0189 2.27225 -90.3107
rradius 32.141
rwrist 18.7156
rhand -27.2228 -18.3918
rfingers 7.12502
rthumb -0.635298 -48.3706
lclavicle 1.72073e-014 1.63003e-014
lhumerus -38.3284 -12.032 97.5987
lradius 37.6395
lwrist 5.29053
lhand -10.9226 3.04423
lfingers 7.12502
lthumb 15.095 32.4738
rfemur -17.5856 7.02946 21.6209
rtibia 30.6808
rfoot -18.5407 -12.7032
rtoes 26.8826
lfemur -21.1249 2.06291 -19.3682
ltibia 32.8283
lfoot -18.544 11.7158
ltoes 10.3821
45
root 4.90555 16.9586 -29.071 9.14945 1.95607 -2.33321
lowerback -7.39664 0.496482 -0.935959
upperback -1.22015 0.676321 1.88934
thorax 2.85207 0.321587 2.54412
lowerneck -8.93858 -2.37796 -2.48927
upperneck 1.076 -2.96721 1.86683
head 1.94231 -1.44224 0.889315
rclavicle -8.15017e-015 -8.34896e-015
rhumerus -36.0203 2.28352 -90.2881
rradius 32.1338
rwrist 18.6867
rhand -27.2138 -18.3805
rfingers 7.12502
rthumb -0.626586 -48.3593
lclavicle -8.15017e-015 -8.34896e-015
lhumerus -38.3149 -12.0304 97.6514
lradius 37.648
lwrist 5.2852
lhand -10.9124 3.00378
lfingers 7.12502
lthumb 15.1049 32.4326
rfemur -17.5666 6.98023 21.6445
rtibia 30.6868
rfoot -18.5108 -12.7694
rtoes 26.4243
lfemur -21.1143 2.07604 -19.3511
ltibia 32.833
lfoot -18.596 11.6611
ltoes 10.4217
46
root 4.89936 16.9583 -29.0708 9.13424 1.99048 -2.32664
lowerback -7.38019 0.493836 -0.961835
upperback -1.20731 0.673966 1.91335
thorax 2.85569 0.31995 2.58328
lowerneck -8.95594 -2.3828 -2.49462
upperneck 1.10213 -2.97144 1.82832
head 1.95341 -1.4454 0.877553
rclavicle -1.36664e-014 1.07344e-014
rhumerus -36.0225 2.29871 -90.2664
rradius 32.1265
rwrist 18.6549
rhand -27.2053 -18.376
rfingers 7.12502
rthumb -0.618393 -48.3548
lclavicle -1.36664e-014 1.07344e-014
lhumerus -38.2998 -12.02 97.7016
lradius 37.6614
lwrist 5.28192
lhand -10.9034 2.99041
lfingers 7.12502
lthumb 15.1136 32.4186
rfemur -17.551 6.92324 21.6696
rtibia 30.6929
rfoot -18.4742 -12.8195
rtoes 25.9602
lfemur -21.1037 2.07993 -19.3315
ltibia 32.8378
lfoot -18.6476 11.6238
ltoes 10.4753
47
root 4.89327 16.958 -29.0707 9.11975 2.01685 -2.31747
lowerback -7.36168 0.494246 -0.989855
upperback -1.19475 0.675881 1.93624
thorax 2.85765 0.320437 2.62287
lowerneck -8.97259 -2.38786 -2.50342
upperneck 1.12646 -2.97575 1.7945
head 1.96398 -1.44852 0.867888
rclavicle 1.18153e-014 2.22639e-014
rhumerus -36.022 2.316 -90.2448
rradius 32.1169
rwrist 18.6188
rhand -27.1924 -18.3752
rfingers 7.12502
rthumb -0.605942 -48.3541
lclavicle 1.18153e-014 2.22639e-014
lhumerus -38.2823 -12.0033 97.7514
lradius 37.6785
lwrist 5.28374
lhand -10.9042 2.99842
lfingers 7.12502
lthumb 15.1128 32.4267
rfemur -17.5383 6.85992 21.6908
rtibia 30.7
rfoot -18.4318 -12.8596
rtoes 25.4843
lfemur -21.0935 2.07722 -19.3155
ltibia 32.8418
lfoot -18.6937 11.5988
ltoes 10.5365
48
root 4.88764 16.9579 -29.0712 9.11549 2.0278 -2.30922
lowerback -7.34371 0.50145 -1.01233
upperback -1.18789 0.686504 1.95791
thorax 2.85362 0.32543 2.65884
lowerneck -8.98382 -2.39312 -2.51449
upperneck 1.14649 -2.98028 1.76364
head 1.97226 -1.45169 0.859604
rclavicle 8.15017e-015 1.17283e-014
rhumerus -36.0224 2.3296 -90.22
rradius 32.1073
rwrist 18.5842
rhand -27.1701 -18.3879
rfingers 7.12502
rthumb -0.58437 -48.3668
lclavicle 8.15017e-015 1.17283e-014
lhumerus -38.2645 -11.9807 97.8031
lradius 37.6965
lwrist 5.28835
lhand -10.906 3.00192
lfingers 7.12502
lthumb 15.1111 32.4303
rfemur -17.5435 6.78024 21.7078
rtibia 30.7088
rfoot -18.3727 -12.8813
rtoes 24.943
lfemur -21.0938 2.05582 -19.301
ltibia 32.8447
lfoot -18.7335 11.6002
ltoes 10.6305
49
root 4.88215 16.958 -29.072 9.11766 2.0322 -2.29931
lowerback -7.32632 0.510994 -1.03408
upperback -1.18476 0.700272 1.97804
thorax 2.8459 0.332076 2.69307
lowerneck -8.99068 -2.3981 -2.53035
upperneck 1.16257 -2.98423 1.74007
head 1.97871 -1.45443 0.854548
rclavicle -4.58447e-015 -1.59028e-014
rhumerus -36.024 2.3412 -90.1947
rradius 32.0991
rwrist 18.5528
rhand -27.1439 -18.4
rfingers 7.12502
rthumb -0.559055 -48.379
lclavicle -4.58447e-015 -1.59028e-014
lhumerus -38.2464 -11.9493 97.8538
lradius 37.7161
lwrist 5.29398
lhand -10.911 3.02103
lfingers 7.12502
lthumb 15.1062 32.4498
rfemur -17.5593 6.69976 21.7201
rtibia 30.7193
rfoot -18.3077 -12.8989
rtoes 24.3783
lfemur -21.101 2.02473 -19.2895
ltibia 32.8465
lfoot -18.768 11.6169
ltoes 10.7232
